<mxfile host="Electron" modified="2024-05-31T05:49:50.399Z" agent="Mozilla/5.0 (Windows NT 10.0; Win64; x64) AppleWebKit/537.36 (KHTML, like Gecko) draw.io/24.2.5 Chrome/120.0.6099.109 Electron/28.1.0 Safari/537.36" etag="Dcl7j0gqEcbHQiAaoN53" version="24.2.5" type="device">
  <diagram name="Page-1" id="sQSzlT0UaLFm5AQuz467">
    <mxGraphModel dx="2140" dy="776" grid="1" gridSize="10" guides="1" tooltips="1" connect="1" arrows="1" fold="1" page="1" pageScale="1" pageWidth="827" pageHeight="1169" math="0" shadow="0">
      <root>
        <mxCell id="0" />
        <mxCell id="1" parent="0" />
        <mxCell id="DjQhXs84O_03xNhw6dWU-15" value="" style="rounded=0;whiteSpace=wrap;html=1;" parent="1" vertex="1">
          <mxGeometry x="-500" y="440" width="900" height="280" as="geometry" />
        </mxCell>
        <mxCell id="c85HcRR-Cej-L8EsLdIs-4" value="" style="rounded=1;whiteSpace=wrap;html=1;" parent="1" vertex="1">
          <mxGeometry x="480" y="360" width="40" height="440" as="geometry" />
        </mxCell>
        <mxCell id="DjQhXs84O_03xNhw6dWU-21" style="edgeStyle=orthogonalEdgeStyle;rounded=0;orthogonalLoop=1;jettySize=auto;html=1;exitX=1;exitY=0.5;exitDx=0;exitDy=0;entryX=0;entryY=0.5;entryDx=0;entryDy=0;" parent="1" source="DjQhXs84O_03xNhw6dWU-16" target="DjQhXs84O_03xNhw6dWU-18" edge="1">
          <mxGeometry relative="1" as="geometry" />
        </mxCell>
        <mxCell id="DjQhXs84O_03xNhw6dWU-16" value="SUBBYTES" style="rounded=0;whiteSpace=wrap;html=1;" parent="1" vertex="1">
          <mxGeometry x="-340" y="480" width="120" height="40" as="geometry" />
        </mxCell>
        <mxCell id="DjQhXs84O_03xNhw6dWU-22" style="edgeStyle=orthogonalEdgeStyle;rounded=0;orthogonalLoop=1;jettySize=auto;html=1;exitX=1;exitY=0.5;exitDx=0;exitDy=0;entryX=0;entryY=0.5;entryDx=0;entryDy=0;" parent="1" source="DjQhXs84O_03xNhw6dWU-18" target="DjQhXs84O_03xNhw6dWU-19" edge="1">
          <mxGeometry relative="1" as="geometry" />
        </mxCell>
        <mxCell id="DjQhXs84O_03xNhw6dWU-18" value="SHIFTROWS" style="rounded=0;whiteSpace=wrap;html=1;" parent="1" vertex="1">
          <mxGeometry x="-140" y="480" width="120" height="40" as="geometry" />
        </mxCell>
        <mxCell id="DjQhXs84O_03xNhw6dWU-19" value="MIXCOLUMNS" style="rounded=0;whiteSpace=wrap;html=1;" parent="1" vertex="1">
          <mxGeometry x="60" y="480" width="120" height="40" as="geometry" />
        </mxCell>
        <mxCell id="DjQhXs84O_03xNhw6dWU-20" value="ADDROUNDKEY" style="rounded=0;whiteSpace=wrap;html=1;" parent="1" vertex="1">
          <mxGeometry x="260" y="480" width="120" height="40" as="geometry" />
        </mxCell>
        <mxCell id="DjQhXs84O_03xNhw6dWU-30" style="edgeStyle=orthogonalEdgeStyle;rounded=0;orthogonalLoop=1;jettySize=auto;html=1;exitX=1;exitY=0.5;exitDx=0;exitDy=0;entryX=0;entryY=0.5;entryDx=0;entryDy=0;" parent="1" source="DjQhXs84O_03xNhw6dWU-31" target="DjQhXs84O_03xNhw6dWU-33" edge="1">
          <mxGeometry relative="1" as="geometry" />
        </mxCell>
        <mxCell id="DjQhXs84O_03xNhw6dWU-31" value="ROTWORD" style="rounded=0;whiteSpace=wrap;html=1;" parent="1" vertex="1">
          <mxGeometry x="-340" y="640" width="120" height="40" as="geometry" />
        </mxCell>
        <mxCell id="DjQhXs84O_03xNhw6dWU-32" style="edgeStyle=orthogonalEdgeStyle;rounded=0;orthogonalLoop=1;jettySize=auto;html=1;exitX=1;exitY=0.5;exitDx=0;exitDy=0;entryX=0;entryY=0.5;entryDx=0;entryDy=0;" parent="1" source="DjQhXs84O_03xNhw6dWU-33" target="DjQhXs84O_03xNhw6dWU-35" edge="1">
          <mxGeometry relative="1" as="geometry" />
        </mxCell>
        <mxCell id="DjQhXs84O_03xNhw6dWU-33" value="SUBWORD" style="rounded=0;whiteSpace=wrap;html=1;" parent="1" vertex="1">
          <mxGeometry x="-140" y="640" width="120" height="40" as="geometry" />
        </mxCell>
        <mxCell id="DjQhXs84O_03xNhw6dWU-34" style="edgeStyle=orthogonalEdgeStyle;rounded=0;orthogonalLoop=1;jettySize=auto;html=1;exitX=1;exitY=0.5;exitDx=0;exitDy=0;" parent="1" source="DjQhXs84O_03xNhw6dWU-35" target="DjQhXs84O_03xNhw6dWU-36" edge="1">
          <mxGeometry relative="1" as="geometry" />
        </mxCell>
        <mxCell id="DjQhXs84O_03xNhw6dWU-35" value="XOR RCON" style="rounded=0;whiteSpace=wrap;html=1;" parent="1" vertex="1">
          <mxGeometry x="60" y="640" width="120" height="40" as="geometry" />
        </mxCell>
        <mxCell id="DjQhXs84O_03xNhw6dWU-36" value="UPDATE KEY" style="rounded=0;whiteSpace=wrap;html=1;" parent="1" vertex="1">
          <mxGeometry x="260" y="640" width="120" height="40" as="geometry" />
        </mxCell>
        <mxCell id="DjQhXs84O_03xNhw6dWU-37" value="KEY EXPANTION" style="text;html=1;align=center;verticalAlign=middle;whiteSpace=wrap;rounded=0;" parent="1" vertex="1">
          <mxGeometry x="-500" y="645" width="170" height="30" as="geometry" />
        </mxCell>
        <mxCell id="DjQhXs84O_03xNhw6dWU-39" value="ROUND" style="text;html=1;align=center;verticalAlign=middle;whiteSpace=wrap;rounded=0;" parent="1" vertex="1">
          <mxGeometry x="-500" y="485" width="170" height="30" as="geometry" />
        </mxCell>
        <mxCell id="c85HcRR-Cej-L8EsLdIs-9" value="" style="edgeStyle=orthogonalEdgeStyle;rounded=0;orthogonalLoop=1;jettySize=auto;html=1;exitX=1;exitY=0.5;exitDx=0;exitDy=0;entryX=0;entryY=0.5;entryDx=0;entryDy=0;" parent="1" source="DjQhXs84O_03xNhw6dWU-19" target="DjQhXs84O_03xNhw6dWU-20" edge="1">
          <mxGeometry relative="1" as="geometry">
            <mxPoint x="180" y="500" as="sourcePoint" />
            <mxPoint x="260" y="500" as="targetPoint" />
          </mxGeometry>
        </mxCell>
      </root>
    </mxGraphModel>
  </diagram>
</mxfile>
